<svg xmlns="http://www.w3.org/2000/svg" viewBox="0 0 600.39 53.88" style=""><title>Asset 2</title><g id="Layer_2" data-name="Layer 2"><g id="Layer_1-2" data-name="Layer 1"><g id="Layer_1-3" data-name="Layer 1"><path d="M504.72,50.9c.1-.4.2-.8.3-1.1,1.1-5.3,2.2-10.6,3.4-15.8.8-3.8,2.3-7.3,5.4-9.9a8.57,8.57,0,0,1,4.5-2.1,28,28,0,0,1,0,4.1c-1.1,5.8-2.4,11.6-3.6,17.4-.5,2.5-1.1,5-1.6,7.5h9.6c1.4-6.6,2.8-13.1,4.1-19.6a32.79,32.79,0,0,0,1-10.8c-.5-4.4-3.3-7-7.7-7.2a16,16,0,0,0-7.7,1.7c1-4.6,1.9-9,2.9-13.5h-8.4c-.9,0-1.3.2-1.5,1.2-2.8,13.3-5.6,26.6-8.5,39.8l-1.8,8.4C498.42,50.9,501.52,50.9,504.72,50.9Zm-211.9.1h9c.2,0,.6-.4.7-.7.4-1.4.6-2.9,1-4.3.6-2.6,1.1-5.2,1.7-8a6.21,6.21,0,0,1,.8,1.2c2.4,3.7,4.7,7.3,7,11a1.68,1.68,0,0,0,1.7.9h10.9c-4.6-6.6-9-13-13.4-19.3l18.7-17.5c-4.3-.3-8.4-.3-12.5-.2a1.79,1.79,0,0,0-1,.6c-2.9,2.8-5.7,5.6-8.5,8.4a4.49,4.49,0,0,1-.9.6c1.6-7.5,3.1-14.7,4.7-22h-9.6C299.82,18.1,296.42,34.5,292.82,51Zm82.7-27.5c-.1-.1-.2-.1-.2-.2,1.5-7.2,3.1-14.5,4.6-21.8h-9.6c-3.5,16.5-7,32.9-10.5,49.3h9.6c.9-4.3,1.8-8.5,2.8-13.1,2.7,4.3,5.3,8.3,7.9,12.3a1.62,1.62,0,0,0,1.6.9h10c.3,0,.6-.1,1-.1-4.5-6.5-8.9-12.9-13.3-19.2l18.9-17.7c-.7,0-1.1-.1-1.5-.1-2.8,0-5.5.2-8.3,0-2.3-.2-4.2.3-5.5,2.4a5.73,5.73,0,0,1-1.1,1.1C379.82,19.4,377.72,21.5,375.52,23.5ZM541,36h21.3c.4-2.1.8-4.1,1-6a31.08,31.08,0,0,0,0-6.1c-.6-6-4.4-10-9.9-10.6a15.93,15.93,0,0,0-12.6,3.8c-7.2,6.4-10,14.6-8.9,24,.6,4.9,3.3,8.5,8.3,10a17,17,0,0,0,7.1.4c4.6-.5,8.8-2.2,13-4-.8-2.9-1.5-5.7-2.3-8.5a1.42,1.42,0,0,1-.2-.6c-1.9,1-3.8,2-5.8,2.9a15.71,15.71,0,0,1-7.1,1.6,3.72,3.72,0,0,1-3.9-3.6C540.92,38.2,541,37.2,541,36ZM232.62,25.5a13.14,13.14,0,0,1,1.5-.5c2.9-1,5.7-2.1,8.6-2.8,2.3-.6,3.3.8,2.5,3.1-4.7-.8-6.6-.7-9.3.3a17.32,17.32,0,0,0-10.7,15.6c-.1,7.1,4.8,11.5,11.8,10.4a42.09,42.09,0,0,0,4.8-1.2c.1.5.1,1.1.2,1.8l9.3-1.2c0-.4-.1-.6-.1-.9-.1-2.2-.5-4.5-.1-6.7.9-5.5,2.1-11,3.3-16.4,1.6-7.3-2.5-14.3-11.4-13.6a38.19,38.19,0,0,0-10.4,2.8.94.94,0,0,0-.5.7C232.42,19.6,232.52,22.5,232.62,25.5ZM59.22,14c-.7,3.4-1.4,6.8-2.2,10.1-.8,3.8-1.4,7.6-3.1,11.2-1.4,2.9-3.2,5.6-6.2,7a17,17,0,0,1-2.4.5,18.48,18.48,0,0,1-.1-2.3c1-5,2.1-9.9,3.1-14.9.8-3.8,1.6-7.6,2.5-11.6h-9.5c-.1.4-.2.7-.3,1-1.5,6.9-2.9,13.8-4.4,20.6a26.44,26.44,0,0,0-.9,8.4,8.11,8.11,0,0,0,7.1,7.5,13.56,13.56,0,0,0,8.1-1.7c.8-.4,1.6-.9,2.6-1.5v2.5h9.1a86.78,86.78,0,0,1,.6-9c1-6.1,2.3-12.1,3.5-18.1.6-3.2,1.4-6.5,2.1-9.8C65.62,14,62.52,14,59.22,14Zm506.4,36.9h9c.2,0,.6-.5.7-.9.8-3.4,1.4-6.8,2.2-10.2a88.89,88.89,0,0,1,3-10.4,12,12,0,0,1,6.2-6.9,10.88,10.88,0,0,1,2.4-.7c.1.1.3.2.4.3-1.6,9.6-4,19.1-5.8,28.7h9.6c.7-3.4,1.4-6.7,2.1-10.1,1.1-5.5,2.5-11,3.3-16.5,1.2-7.8-4.2-12.5-11.8-10.5a50.51,50.51,0,0,0-6.1,2.3V13.9h-9.3C571.92,26.7,567.62,38.6,565.62,50.9Zm-109-11.6c-2.9-.8-5.7-1.5-8.4-2.3-.7-.2-.9.1-1.2.6a47.06,47.06,0,0,1-3.6,4.2,3.64,3.64,0,0,1-3.7.9c1-6.7,2.8-13.3,4.1-20h11.5c.6-2.9,1.3-5.8,1.9-8.8h-11.5c.7-3.3,1.4-6.5,2.1-9.8h-9.5c-.6,3-1.3,5.9-1.9,8.8-.2.8-.5,1-1.3,1-1.1-.1-2.2,0-3.2,0-2.6,0-2.6,0-3.2,2.5-.5,2-.9,4.1-1.4,6.2h6.8a2,2,0,0,1-.1.8c-.7,3.5-1.5,7-2.2,10.6s-1.6,6.9-1.1,10.5a7.66,7.66,0,0,0,6.3,6.9,14.1,14.1,0,0,0,9-1.3C450.82,47.8,453.82,43.8,456.62,39.3ZM197.82,22.7c-.7,3.2-1.3,6.2-1.9,9.2-.8,3.8-1.8,7.5-1.7,11.3.1,4.5,2.4,7.5,6.4,8.2a14.29,14.29,0,0,0,6.8-.4c6.1-1.9,9.6-6.5,12.9-11.8l-6.8-1.8c-2.4-.6-2.4-.6-3.7,1.3a9.48,9.48,0,0,1-4.5,3.9c-1.6.5-2,.1-1.8-1.5.4-2.3.9-4.5,1.4-6.8.8-3.9,1.7-7.8,2.5-11.7h11.4c.7-2.9,1.3-5.8,2-8.8h-11.5c.7-3.3,1.4-6.5,2-9.7h-9.6c-.6,2.9-1.3,5.8-1.9,8.7-.2.9-.5,1.1-1.3,1.1-1.6-.1-3.3,0-4.9,0-.3,0-.9.2-.9.5-.7,2.7-1.2,5.4-1.9,8.3Zm-196,3.1h8c-1.9,8.8-3.7,16.4-5.5,25.1h9.6l.3-1.2c1.7-8,3.4-15,5.1-23,.2-.8.4-1.1,1.3-1,2,.1,4.1,0,6.1,0,3.2,0,3.2-1,3.8-4.1.4-1.9.7-2.7,1.1-4.7H21.32c.1-.6,1.37-11.79,14.1-3.1.7-3.3,1.3-5.4,2-8.5-.7-.3-4.2-2.1-5.4-2.5C23.72.1,15.62,4,12.72,12.3c-.4,1.2-.7,3.4-1,4.6H3.82C3,19.9,2.42,22.7,1.82,25.8Zm184-6.8a55.57,55.57,0,0,0-5.2-3.7c-6.8-3.8-15.6-2-20,4-3.3,4.5-3,10,.9,13.3a26.24,26.24,0,0,0,5.1,3c1.3.7,2.6,1.2,3.9,1.8a2,2,0,0,1,1.1,2.5c-.5,2.3-3,3.5-5.7,2.8a11.14,11.14,0,0,1-5.9-4.3c-.6-.8-1.1-1.5-1.7-2.3-1.2,1.4-2.3,2.6-3.5,3.8s-2.2,2.5-3.3,3.7c3.1,3.7,5.8,5.7,9.4,7,7,2.5,14.5.2,18.3-5.7s2.3-12.2-3.9-15.5c-1.4-.7-2.8-1.3-4.3-1.9a19.65,19.65,0,0,1-2.5-1.3c-.8-.5-.9-1.1-.4-2a4.25,4.25,0,0,1,4.3-2.1,10.56,10.56,0,0,1,4.8,2.5c.9.7,1.7,1.4,2.6,2.1C181.92,24.2,183.82,21.7,185.82,19ZM283,36.4a13.1,13.1,0,0,1-1.3,1.2c-2.1,1.9-4.1,4-6.8,5-3.2,1.1-5.8-.4-6.2-3.8a18.42,18.42,0,0,1,3.7-13.6,7.84,7.84,0,0,1,4.2-2.9c3-.9,4.8,0,5.8,2.9.5,1.3.8,2.6,1.3,4,3.1-1.8,6-3.5,9.3-5.4-1.2-2-2.2-4-3.5-5.8a11.16,11.16,0,0,0-7.4-4.5,17.25,17.25,0,0,0-16.3,5.8c-4.7,5.2-6.7,11.5-6.8,18.4-.2,9.3,6.2,14.9,15.5,13.8,5.8-.7,9.9-4.2,14-7.9C286.62,41.2,284.92,38.9,283,36.4Zm203.1-7.2c3.1-1.8,6.1-3.6,9.1-5.3-.6-1.3-1.1-2.4-1.7-3.5-2-3.7-4.9-6.2-9.1-6.9a17.39,17.39,0,0,0-16.2,5.8c-5,5.5-6.9,12.3-6.8,19.6.1,6,3.2,10.2,8.3,11.9a16,16,0,0,0,8.4.5c5.1-1,8.9-4.3,12.7-7.7-1.8-2.4-3.6-4.8-5.4-7.3a13.1,13.1,0,0,1-1.3,1.2c-2.1,2-4.1,4.1-6.9,5-3.1,1-5.7-.5-6.1-3.8a19,19,0,0,1,3.6-13.5,7.59,7.59,0,0,1,4.1-2.9c3-.9,4.9-.1,6,2.9A37.58,37.58,0,0,1,486.12,29.2Zm-84.3-6.6h9.1c-2,9.5-4,18.8-6,28.3,2.8,0,5.5-.1,8.2,0,1.2,0,1.5-.4,1.8-1.5,1.7-8.3,3.5-16.6,5.3-24.8.8-3.5,1.5-7.1,2.3-10.7l-1.2-.3c2.2-1.6,3.1-2.8,3.6-4.6a5.56,5.56,0,0,0-2.6-6.5,7,7,0,0,0-7.7,1.3,6.54,6.54,0,0,0-1.7,7.5,13,13,0,0,0,1.8,2.5h-9.9c-.4,0-1,.3-1,.6C403,17.1,402.52,19.8,401.82,22.6ZM83.62,10.3C80.72,23.9,77.92,37.4,75,51h9.6c3.5-16.5,7-32.9,10.5-49.3H76.42c-.6,2.9-1.3,5.7-1.9,8.6ZM112.32,51c3.5-16.5,7-32.9,10.5-49.3h-18.7c-.6,2.9-1.3,5.7-1.9,8.7h9.1c-2.9,13.6-5.7,27.1-8.6,40.6Z" style="fill:none;stroke:#000;stroke-miterlimit:10;stroke-width:3px" class="FbMGpJcF_0"></path><path d="M504.72,50.9h-9.5c.6-2.9,1.2-5.6,1.8-8.4,2.8-13.3,5.7-26.6,8.5-39.8.2-1,.6-1.2,1.5-1.2,2.8.1,5.5,0,8.4,0-1,4.5-1.9,8.9-2.9,13.5a16.29,16.29,0,0,1,7.7-1.7c4.4.2,7.2,2.8,7.7,7.2a32.79,32.79,0,0,1-1,10.8c-1.4,6.5-2.8,13-4.1,19.6h-9.6c.5-2.5,1.1-5,1.6-7.5,1.2-5.8,2.5-11.6,3.6-17.4a28,28,0,0,0,0-4.1,7.88,7.88,0,0,0-4.5,2.1c-3.1,2.6-4.6,6-5.4,9.9-1.1,5.3-2.2,10.5-3.4,15.8A5.64,5.64,0,0,0,504.72,50.9Z" style="fill:none;stroke:#000;stroke-miterlimit:10;stroke-width:3px" class="FbMGpJcF_1"></path><path d="M292.82,51c3.5-16.5,7-32.9,10.5-49.4h9.6c-1.5,7.3-3.1,14.5-4.7,22,.4-.3.7-.4.9-.6,2.8-2.8,5.7-5.6,8.5-8.4a1.52,1.52,0,0,1,1-.6c4.1,0,8.2,0,12.5.2l-18.7,17.5c4.4,6.3,8.8,12.7,13.4,19.3h-10.9a1.68,1.68,0,0,1-1.7-.9c-2.3-3.7-4.7-7.3-7-11l-.8-1.2c-.6,2.8-1.2,5.4-1.7,8-.3,1.4-.6,2.9-1,4.3-.1.3-.5.7-.7.7C298.92,51,296,51,292.82,51Z" style="fill:none;stroke:#000;stroke-miterlimit:10;stroke-width:3px" class="FbMGpJcF_2"></path><path d="M375.52,23.5l6.5-6.2a11.41,11.41,0,0,0,1.1-1.1c1.3-2.1,3.1-2.6,5.5-2.4,2.7.2,5.5,0,8.3,0a9.23,9.23,0,0,1,1.5.1l-18.9,17.7c4.4,6.3,8.8,12.7,13.3,19.2-.4,0-.7.1-1,.1h-10a1.54,1.54,0,0,1-1.6-.9c-2.5-4-5.1-8-7.9-12.3-1,4.5-1.9,8.8-2.8,13.1h-9.6c3.5-16.5,7-32.9,10.5-49.3H380c-1.6,7.3-3.1,14.6-4.6,21.8A.35.35,0,0,0,375.52,23.5Z" style="fill:none;stroke:#000;stroke-miterlimit:10;stroke-width:3px" class="FbMGpJcF_3"></path><path d="M541,36c0,1.2-.1,2.2,0,3.2q.3,3.45,3.9,3.6a16,16,0,0,0,7.1-1.6c2-.9,3.8-1.9,5.8-2.9a1.42,1.42,0,0,1,.2.6c.8,2.8,1.5,5.6,2.3,8.5-4.2,1.8-8.4,3.5-13,4a17,17,0,0,1-7.1-.4c-5-1.5-7.7-5-8.3-10-1.1-9.4,1.7-17.7,8.9-24a16.43,16.43,0,0,1,12.6-3.8c5.5.5,9.4,4.6,9.9,10.6a31.08,31.08,0,0,1,0,6.1c-.2,2-.6,3.9-1,6C555.22,36,548.12,36,541,36Zm13.2-8.7a15,15,0,0,0-.4-2.4,3.43,3.43,0,0,0-3.5-2.9c-2.7,0-6,2.6-6.7,5.3Z" style="fill:none;stroke:#000;stroke-miterlimit:10;stroke-width:3px" class="FbMGpJcF_4"></path><path d="M232.62,25.5q-.15-4.5-.3-8.7a1.16,1.16,0,0,1,.5-.7c3.4-1.2,6.7-2.5,10.4-2.8,8.9-.7,13,6.3,11.4,13.6-1.2,5.5-2.4,10.9-3.3,16.4-.4,2.2,0,4.4.1,6.7,0,.3.1.5.1.9l-9.3,1.2a14.05,14.05,0,0,1-.2-1.8,42.09,42.09,0,0,1-4.8,1.2c-7,1-11.9-3.4-11.8-10.4a17.32,17.32,0,0,1,10.7-15.6c2.7-1,4.6-1.1,9.3-.3.8-2.3-.2-3.7-2.5-3.1-2.9.8-5.8,1.9-8.6,2.8C233.62,25.1,233.22,25.3,232.62,25.5Zm10.8,8.5c-2.3-.7-4.4-1-6.1.7a8.41,8.41,0,0,0-2.5,7.2c.1.9.7,1.2,1.6,1.1,2.8-.5,4.6-2.4,6-4.5C243.22,37.2,243.12,35.5,243.42,34Z" style="fill:none;stroke:#000;stroke-miterlimit:10;stroke-width:3px" class="FbMGpJcF_5"></path><path d="M59.22,14h9.6c-.7,3.3-1.4,6.5-2.1,9.8-1.2,6-2.5,12-3.5,18.1a88.68,88.68,0,0,0-.6,9h-9.1V48.4a30,30,0,0,0-2.6,1.5,13.41,13.41,0,0,1-8.1,1.7,7.94,7.94,0,0,1-7.1-7.5,26.44,26.44,0,0,1,.9-8.4c1.5-6.9,2.9-13.7,4.4-20.6.1-.3.2-.6.3-1h9.5c-.8,3.9-1.7,7.7-2.5,11.6-1,5-2.1,9.9-3.1,14.9a18.48,18.48,0,0,0,.1,2.3,6.44,6.44,0,0,0,2.4-.5c3-1.5,4.8-4.1,6.2-7,1.7-3.5,2.3-7.4,3.1-11.2C57.82,20.8,58.52,17.4,59.22,14Z" style="fill:none;stroke:#000;stroke-miterlimit:10;stroke-width:3px" class="FbMGpJcF_6"></path><path d="M565.62,50.9c2-12.4,6.3-24.2,5.9-37h9.3V16a50.51,50.51,0,0,1,6.1-2.3c7.6-2,13,2.7,11.8,10.5-.9,5.6-2.2,11-3.3,16.5-.7,3.4-1.4,6.7-2.1,10.1h-9.6c1.8-9.6,4.2-19.1,5.8-28.7-.1-.1-.3-.2-.4-.3a9.51,9.51,0,0,0-2.4.7,12,12,0,0,0-6.2,6.9,94.86,94.86,0,0,0-3,10.4c-.8,3.4-1.4,6.8-2.2,10.2-.1.3-.4.9-.7.9C571.62,51,568.62,50.9,565.62,50.9Z" style="fill:none;stroke:#000;stroke-miterlimit:10;stroke-width:3px" class="FbMGpJcF_7"></path><path d="M456.62,39.3c-2.8,4.5-5.8,8.6-10.6,10.9a14.8,14.8,0,0,1-9,1.3,7.37,7.37,0,0,1-6.3-6.9c-.5-3.6.4-7.1,1.1-10.5s1.5-7,2.2-10.6a2.49,2.49,0,0,1,.1-.8h-6.8c.5-2.2.9-4.2,1.4-6.2.6-2.5.6-2.5,3.2-2.5h3.2c.8,0,1.1-.2,1.3-1,.6-2.9,1.2-5.9,1.9-8.8h9.5c-.7,3.3-1.4,6.5-2.1,9.8h11.5c-.7,3-1.3,5.9-1.9,8.8h-11.5c-1.3,6.7-3,13.3-4.1,20a3.64,3.64,0,0,0,3.7-.9,49.53,49.53,0,0,0,3.6-4.2c.4-.4.6-.7,1.2-.6C450.92,37.8,453.72,38.5,456.62,39.3Z" style="fill:none;stroke:#000;stroke-miterlimit:10;stroke-width:3px" class="FbMGpJcF_8"></path><path d="M197.82,22.7h-6.9c.6-2.8,1.2-5.6,1.9-8.3a1.35,1.35,0,0,1,.9-.5c1.6,0,3.3-.1,4.9,0,.8,0,1.2-.2,1.3-1.1.6-2.9,1.2-5.8,1.9-8.7h9.6c-.7,3.2-1.3,6.4-2,9.7h11.5c-.7,3-1.3,5.9-2,8.8h-11.4c-.8,4-1.7,7.9-2.5,11.7-.5,2.3-1,4.5-1.4,6.8-.3,1.6.2,2,1.8,1.5a9.48,9.48,0,0,0,4.5-3.9c1.4-2,1.4-2,3.7-1.3s4.4,1.2,6.8,1.8c-3.2,5.2-6.8,9.9-12.9,11.8a14.22,14.22,0,0,1-6.8.4c-4-.7-6.3-3.8-6.4-8.2-.1-3.9.9-7.6,1.7-11.3C196.52,28.9,197.12,25.9,197.82,22.7Z" style="fill:none;stroke:#000;stroke-miterlimit:10;stroke-width:3px" class="FbMGpJcF_9"></path><path d="M30.12,17h1.3c-.4,2-.7,2.8-1.1,4.7-.6,3.1-.7,4.1-3.8,4.1h-6.1a1.15,1.15,0,0,0-1.3,1c-1.7,8-3.4,15-5.1,23l-.3,1.2H4.12c1.8-8.7,3.7-16.3,5.5-25.1-2.5-.1-5.1-.1-7.8-.1.6-3.1,1.2-5.9,1.8-8.8h7.9c.4-1.3.6-3.5,1-4.6a15,15,0,0,1,19.3-9.5,36.83,36.83,0,0,1,3.5,1.5,11.4,11.4,0,0,1,1.9,1c-.7,3.2-1.3,5.3-2,8.5" style="fill:none;stroke:#000;stroke-miterlimit:10;stroke-width:3px" class="FbMGpJcF_10"></path><path d="M185.82,19c-2,2.7-3.9,5.2-5.8,7.7-.9-.7-1.8-1.4-2.6-2.1a9.68,9.68,0,0,0-4.8-2.5,4.33,4.33,0,0,0-4.3,2.1c-.4.8-.4,1.5.4,2s1.7.9,2.5,1.3c1.4.7,2.9,1.2,4.3,1.9,6.2,3.3,7.8,9.6,3.9,15.5s-11.3,8.2-18.3,5.7c-3.6-1.3-6.3-3.3-9.4-7,1.1-1.2,2.2-2.5,3.3-3.7s2.2-2.5,3.5-3.8c.6.8,1.2,1.6,1.7,2.3a11.14,11.14,0,0,0,5.9,4.3c2.7.7,5.1-.5,5.7-2.8a2,2,0,0,0-1.1-2.5c-1.3-.6-2.7-1.1-3.9-1.8a28.49,28.49,0,0,1-5.1-3c-3.9-3.3-4.2-8.8-.9-13.3a15.44,15.44,0,0,1,20-4C182.42,16.3,184.12,17.7,185.82,19Z" style="fill:none;stroke:#000;stroke-miterlimit:10;stroke-width:3px" class="FbMGpJcF_11"></path><path d="M283,36.4c1.8,2.5,3.6,4.9,5.4,7.3-4.1,3.7-8.2,7.2-14,7.9-9.2,1.1-15.7-4.5-15.5-13.8.2-6.8,2.1-13.2,6.8-18.4A17.33,17.33,0,0,1,282,13.6a10.93,10.93,0,0,1,7.4,4.5c1.3,1.8,2.3,3.8,3.5,5.8-3.2,1.9-6.2,3.6-9.3,5.4-.4-1.4-.8-2.7-1.3-4-1.1-2.9-2.9-3.8-5.8-2.9a8.23,8.23,0,0,0-4.2,2.9,18.42,18.42,0,0,0-3.7,13.6c.4,3.4,3,4.9,6.2,3.8,2.8-1,4.8-3,6.8-5C282.12,37.2,282.52,36.9,283,36.4Z" style="fill:none;stroke:#000;stroke-miterlimit:10;stroke-width:3px" class="FbMGpJcF_12"></path><path d="M486.12,29.2c-.4-1.4-.8-2.7-1.3-4-1.1-2.9-2.9-3.8-6-2.9a7.59,7.59,0,0,0-4.1,2.9,18.23,18.23,0,0,0-3.6,13.5c.4,3.3,3,4.8,6.1,3.8,2.8-.9,4.8-3,6.9-5a15.38,15.38,0,0,1,1.3-1.2c1.8,2.5,3.6,4.9,5.4,7.3-3.8,3.4-7.6,6.7-12.7,7.7a16,16,0,0,1-8.4-.5c-5.1-1.8-8.2-6-8.3-11.9-.1-7.3,1.8-14,6.8-19.6a17.39,17.39,0,0,1,16.2-5.8c4.2.7,7.1,3.2,9.1,6.9.6,1.1,1.1,2.2,1.7,3.5C492.22,25.6,489.22,27.3,486.12,29.2Z" style="fill:none;stroke:#000;stroke-miterlimit:10;stroke-width:3px" class="FbMGpJcF_13"></path><path d="M401.82,22.6c.6-2.9,1.2-5.5,1.9-8.1a1.33,1.33,0,0,1,1-.6h9.9a13,13,0,0,1-1.8-2.5c-1.1-2.3-.3-5.5,1.7-7.5a6.94,6.94,0,0,1,7.7-1.3,5.51,5.51,0,0,1,2.6,6.5c-.5,1.8-1.4,3-3.6,4.6l1.2.3c-.8,3.6-1.5,7.1-2.3,10.7-1.8,8.3-3.5,16.5-5.3,24.8-.2,1.1-.6,1.5-1.8,1.5-2.7-.1-5.3,0-8.2,0,2-9.5,4-18.8,6-28.3C407.92,22.6,405,22.6,401.82,22.6Z" style="fill:none;stroke:#000;stroke-miterlimit:10;stroke-width:3px" class="FbMGpJcF_14"></path><path d="M83.62,10.3h-9.1c.7-2.9,1.3-5.7,1.9-8.6h18.7c-3.5,16.5-7,32.9-10.5,49.3H75C77.82,37.4,80.72,23.9,83.62,10.3Z" style="fill:none;stroke:#000;stroke-miterlimit:10;stroke-width:3px" class="FbMGpJcF_15"></path><path d="M554.22,27.3h-10.5c.7-2.7,4-5.3,6.7-5.3a3.43,3.43,0,0,1,3.5,2.9A15.69,15.69,0,0,1,554.22,27.3Z" style="fill:none;stroke:#000;stroke-miterlimit:10;stroke-width:3px" class="FbMGpJcF_16"></path><path d="M243.42,34c-.3,1.6-.3,3.2-1,4.4-1.4,2.2-3.2,4-6,4.5a1.3,1.3,0,0,1-1.6-1.1,8.41,8.41,0,0,1,2.5-7.2C239.12,32.9,241.22,33.2,243.42,34Z" style="fill:none;stroke:#000;stroke-miterlimit:10;stroke-width:3px" class="FbMGpJcF_17"></path></g></g></g><style data-made-with="vivus-instant">.FbMGpJcF_0{stroke-dasharray:2747 2749;stroke-dashoffset:2748;animation:FbMGpJcF_draw 2500ms ease-in 0ms forwards;}.FbMGpJcF_1{stroke-dasharray:207 209;stroke-dashoffset:208;animation:FbMGpJcF_draw 2500ms ease-in 0ms forwards;}.FbMGpJcF_2{stroke-dasharray:209 211;stroke-dashoffset:210;animation:FbMGpJcF_draw 2500ms ease-in 0ms forwards;}.FbMGpJcF_3{stroke-dasharray:210 212;stroke-dashoffset:211;animation:FbMGpJcF_draw 2500ms ease-in 0ms forwards;}.FbMGpJcF_4{stroke-dasharray:184 186;stroke-dashoffset:185;animation:FbMGpJcF_draw 2500ms ease-in 0ms forwards;}.FbMGpJcF_5{stroke-dasharray:175 177;stroke-dashoffset:176;animation:FbMGpJcF_draw 2500ms ease-in 0ms forwards;}.FbMGpJcF_6{stroke-dasharray:185 187;stroke-dashoffset:186;animation:FbMGpJcF_draw 2500ms ease-in 0ms forwards;}.FbMGpJcF_7{stroke-dasharray:185 187;stroke-dashoffset:186;animation:FbMGpJcF_draw 2500ms ease-in 0ms forwards;}.FbMGpJcF_8{stroke-dasharray:181 183;stroke-dashoffset:182;animation:FbMGpJcF_draw 2500ms ease-in 0ms forwards;}.FbMGpJcF_9{stroke-dasharray:181 183;stroke-dashoffset:182;animation:FbMGpJcF_draw 2500ms ease-in 0ms forwards;}.FbMGpJcF_10{stroke-dasharray:149 151;stroke-dashoffset:150;animation:FbMGpJcF_draw 2500ms ease-in 0ms forwards;}.FbMGpJcF_11{stroke-dasharray:169 171;stroke-dashoffset:170;animation:FbMGpJcF_draw 2500ms ease-in 0ms forwards;}.FbMGpJcF_12{stroke-dasharray:165 167;stroke-dashoffset:166;animation:FbMGpJcF_draw 2500ms ease-in 0ms forwards;}.FbMGpJcF_13{stroke-dasharray:164 166;stroke-dashoffset:165;animation:FbMGpJcF_draw 2500ms ease-in 0ms forwards;}.FbMGpJcF_14{stroke-dasharray:139 141;stroke-dashoffset:140;animation:FbMGpJcF_draw 2500ms ease-in 0ms forwards;}.FbMGpJcF_15{stroke-dasharray:139 141;stroke-dashoffset:140;animation:FbMGpJcF_draw 2500ms ease-in 0ms forwards;}.FbMGpJcF_16{stroke-dasharray:27 29;stroke-dashoffset:28;animation:FbMGpJcF_draw 2500ms ease-in 0ms forwards;}.FbMGpJcF_17{stroke-dasharray:29 31;stroke-dashoffset:30;animation:FbMGpJcF_draw 2500ms ease-in 0ms forwards;}@keyframes FbMGpJcF_draw{100%{stroke-dashoffset:0;}}@keyframes FbMGpJcF_fade{0%{stroke-opacity:1;}94.02985074626866%{stroke-opacity:1;}100%{stroke-opacity:0;}}</style></svg>