<svg id="Layer_1" data-name="Layer 1" xmlns="http://www.w3.org/2000/svg" viewBox="0 0 600.39 53.88"><title>fullstackkitchen-without</title><path d="M614.83,408.1c.1-.4.2-.8.3-1.1,1.1-5.3,2.2-10.6,3.4-15.8.8-3.8,2.3-7.3,5.4-9.9a8.57,8.57,0,0,1,4.5-2.1,28,28,0,0,1,0,4.1c-1.1,5.8-2.4,11.6-3.6,17.4-.5,2.5-1.1,5-1.6,7.5h9.6c1.4-6.6,2.8-13.1,4.1-19.6a32.79,32.79,0,0,0,1-10.8c-.5-4.4-3.3-7-7.7-7.2a16,16,0,0,0-7.7,1.7c1-4.6,1.9-9,2.9-13.5H617c-.9,0-1.3.2-1.5,1.2-2.8,13.3-5.6,26.6-8.5,39.8l-1.8,8.4C608.53,408.1,611.63,408.1,614.83,408.1Zm-211.9.1h9c.2,0,.6-.4.7-.7.4-1.4.6-2.9,1-4.3.6-2.6,1.1-5.2,1.7-8a6.21,6.21,0,0,1,.8,1.2c2.4,3.7,4.7,7.3,7,11a1.68,1.68,0,0,0,1.7.9h10.9c-4.6-6.6-9-13-13.4-19.3L441,371.5c-4.3-.3-8.4-.3-12.5-.2a1.79,1.79,0,0,0-1,.6c-2.9,2.8-5.7,5.6-8.5,8.4a4.49,4.49,0,0,1-.9.6c1.6-7.5,3.1-14.7,4.7-22h-9.6C409.93,375.3,406.53,391.7,402.93,408.2Zm82.7-27.5c-.1-.1-.2-.1-.2-.2,1.5-7.2,3.1-14.5,4.6-21.8h-9.6c-3.5,16.5-7,32.9-10.5,49.3h9.6c.9-4.3,1.8-8.5,2.8-13.1,2.7,4.3,5.3,8.3,7.9,12.3a1.62,1.62,0,0,0,1.6.9h10c.3,0,.6-.1,1-.1-4.5-6.5-8.9-12.9-13.3-19.2l18.9-17.7c-.7,0-1.1-.1-1.5-.1-2.8,0-5.5.2-8.3,0-2.3-.2-4.2.3-5.5,2.4a5.73,5.73,0,0,1-1.1,1.1C489.93,376.6,487.83,378.7,485.63,380.7Zm165.5,12.5h21.3c.4-2.1.8-4.1,1-6a31.08,31.08,0,0,0,0-6.1c-.6-6-4.4-10-9.9-10.6a15.93,15.93,0,0,0-12.6,3.8c-7.2,6.4-10,14.6-8.9,24,.6,4.9,3.3,8.5,8.3,10a17,17,0,0,0,7.1.4c4.6-.5,8.8-2.2,13-4-.8-2.9-1.5-5.7-2.3-8.5a1.42,1.42,0,0,1-.2-.6c-1.9,1-3.8,2-5.8,2.9a15.71,15.71,0,0,1-7.1,1.6,3.72,3.72,0,0,1-3.9-3.6C651,395.4,651.13,394.4,651.13,393.2Zm-308.4-10.5a13.14,13.14,0,0,1,1.5-.5c2.9-1,5.7-2.1,8.6-2.8,2.3-.6,3.3.8,2.5,3.1-4.7-.8-6.6-.7-9.3.3a17.32,17.32,0,0,0-10.7,15.6c-.1,7.1,4.8,11.5,11.8,10.4a42.09,42.09,0,0,0,4.8-1.2c.1.5.1,1.1.2,1.8l9.3-1.2c0-.4-.1-.6-.1-.9-.1-2.2-.5-4.5-.1-6.7.9-5.5,2.1-11,3.3-16.4,1.6-7.3-2.5-14.3-11.4-13.6a38.19,38.19,0,0,0-10.4,2.8.94.94,0,0,0-.5.7C342.53,376.8,342.63,379.7,342.73,382.7Zm-173.4-11.5c-.7,3.4-1.4,6.8-2.2,10.1-.8,3.8-1.4,7.6-3.1,11.2-1.4,2.9-3.2,5.6-6.2,7a17,17,0,0,1-2.4.5,18.48,18.48,0,0,1-.1-2.3c1-5,2.1-9.9,3.1-14.9.8-3.8,1.6-7.6,2.5-11.6h-9.5c-.1.4-.2.7-.3,1-1.5,6.9-2.9,13.8-4.4,20.6a26.44,26.44,0,0,0-.9,8.4,8.11,8.11,0,0,0,7.1,7.5A13.56,13.56,0,0,0,161,407c.8-.4,1.6-.9,2.6-1.5V408h9.1a86.78,86.78,0,0,1,.6-9c1-6.1,2.3-12.1,3.5-18.1.6-3.2,1.4-6.5,2.1-9.8C175.73,371.2,172.63,371.2,169.33,371.2Zm506.4,36.9h9c.2,0,.6-.5.7-.9.8-3.4,1.4-6.8,2.2-10.2a88.89,88.89,0,0,1,3-10.4,12,12,0,0,1,6.2-6.9,10.88,10.88,0,0,1,2.4-.7c.1.1.3.2.4.3-1.6,9.6-4,19.1-5.8,28.7h9.6c.7-3.4,1.4-6.7,2.1-10.1,1.1-5.5,2.5-11,3.3-16.5,1.2-7.8-4.2-12.5-11.8-10.5a50.51,50.51,0,0,0-6.1,2.3v-2.1h-9.3C682,383.9,677.73,395.8,675.73,408.1Zm-109-11.6c-2.9-.8-5.7-1.5-8.4-2.3-.7-.2-.9.1-1.2.6a47.06,47.06,0,0,1-3.6,4.2,3.64,3.64,0,0,1-3.7.9c1-6.7,2.8-13.3,4.1-20h11.5c.6-2.9,1.3-5.8,1.9-8.8h-11.5c.7-3.3,1.4-6.5,2.1-9.8h-9.5c-.6,3-1.3,5.9-1.9,8.8-.2.8-.5,1-1.3,1-1.1-.1-2.2,0-3.2,0-2.6,0-2.6,0-3.2,2.5-.5,2-.9,4.1-1.4,6.2h6.8a2,2,0,0,1-.1.8c-.7,3.5-1.5,7-2.2,10.6s-1.6,6.9-1.1,10.5a7.66,7.66,0,0,0,6.3,6.9,14.1,14.1,0,0,0,9-1.3C560.93,405,563.93,401,566.73,396.5Zm-258.8-16.6c-.7,3.2-1.3,6.2-1.9,9.2-.8,3.8-1.8,7.5-1.7,11.3.1,4.5,2.4,7.5,6.4,8.2a14.29,14.29,0,0,0,6.8-.4c6.1-1.9,9.6-6.5,12.9-11.8l-6.8-1.8c-2.4-.6-2.4-.6-3.7,1.3a9.48,9.48,0,0,1-4.5,3.9c-1.6.5-2,.1-1.8-1.5.4-2.3.9-4.5,1.4-6.8.8-3.9,1.7-7.8,2.5-11.7h11.4c.7-2.9,1.3-5.8,2-8.8h-11.5c.7-3.3,1.4-6.5,2-9.7h-9.6c-.6,2.9-1.3,5.8-1.9,8.7-.2.9-.5,1.1-1.3,1.1-1.6-.1-3.3,0-4.9,0-.3,0-.9.2-.9.5-.7,2.7-1.2,5.4-1.9,8.3Zm-196,2.1h8c-1.9,8.8-3.7,17.4-5.5,26.1H124l.3-1.2,5.1-24c.2-.8.4-1.1,1.3-1,2,.1,4.1,0,6.1,0,3.2,0,3.2,0,3.8-3.1.4-1.9.7-3.7,1.1-5.7h-10.3a7.49,7.49,0,0,1,.4-1.6c1-3.3,3.5-4.4,6.6-3,1,.4,2,1,3,1.5,1.3.7,2.7,1.3,4.1,2,.7-3.3,1.3-6.4,2-9.5-.7-.3-1.3-.7-1.9-1-1.2-.5-2.3-1.1-3.5-1.5-8.3-2.7-16.4,1.2-19.3,9.5-.4,1.2-.7,2.4-1,3.6h-7.9C113.13,376.1,112.53,378.9,111.93,382Zm184-5.8a55.57,55.57,0,0,0-5.2-3.7c-6.8-3.8-15.6-2-20,4-3.3,4.5-3,10,.9,13.3a26.24,26.24,0,0,0,5.1,3c1.3.7,2.6,1.2,3.9,1.8a2,2,0,0,1,1.1,2.5c-.5,2.3-3,3.5-5.7,2.8a11.14,11.14,0,0,1-5.9-4.3c-.6-.8-1.1-1.5-1.7-2.3-1.2,1.4-2.3,2.6-3.5,3.8s-2.2,2.5-3.3,3.7c3.1,3.7,5.8,5.7,9.4,7,7,2.5,14.5.2,18.3-5.7s2.3-12.2-3.9-15.5c-1.4-.7-2.8-1.3-4.3-1.9a19.65,19.65,0,0,1-2.5-1.3c-.8-.5-.9-1.1-.4-2a4.25,4.25,0,0,1,4.3-2.1,10.56,10.56,0,0,1,4.8,2.5c.9.7,1.7,1.4,2.6,2.1C292,381.4,293.93,378.9,295.93,376.2Zm97.2,17.4a13.1,13.1,0,0,1-1.3,1.2c-2.1,1.9-4.1,4-6.8,5-3.2,1.1-5.8-.4-6.2-3.8a18.42,18.42,0,0,1,3.7-13.6,7.84,7.84,0,0,1,4.2-2.9c3-.9,4.8,0,5.8,2.9.5,1.3.8,2.6,1.3,4,3.1-1.8,6-3.5,9.3-5.4-1.2-2-2.2-4-3.5-5.8a11.16,11.16,0,0,0-7.4-4.5,17.25,17.25,0,0,0-16.3,5.8c-4.7,5.2-6.7,11.5-6.8,18.4-.2,9.3,6.2,14.9,15.5,13.8,5.8-.7,9.9-4.2,14-7.9C396.73,398.4,395,396.1,393.13,393.6Zm203.1-7.2c3.1-1.8,6.1-3.6,9.1-5.3-.6-1.3-1.1-2.4-1.7-3.5-2-3.7-4.9-6.2-9.1-6.9a17.39,17.39,0,0,0-16.2,5.8c-5,5.5-6.9,12.3-6.8,19.6.1,6,3.2,10.2,8.3,11.9a16,16,0,0,0,8.4.5c5.1-1,8.9-4.3,12.7-7.7-1.8-2.4-3.6-4.8-5.4-7.3a13.1,13.1,0,0,1-1.3,1.2c-2.1,2-4.1,4.1-6.9,5-3.1,1-5.7-.5-6.1-3.8a19,19,0,0,1,3.6-13.5,7.59,7.59,0,0,1,4.1-2.9c3-.9,4.9-.1,6,2.9A37.58,37.58,0,0,1,596.23,386.4Zm-84.3-6.6H521c-2,9.5-4,18.8-6,28.3,2.8,0,5.5-.1,8.2,0,1.2,0,1.5-.4,1.8-1.5,1.7-8.3,3.5-16.6,5.3-24.8.8-3.5,1.5-7.1,2.3-10.7l-1.2-.3c2.2-1.6,3.1-2.8,3.6-4.6a5.56,5.56,0,0,0-2.6-6.5,7,7,0,0,0-7.7,1.3,6.54,6.54,0,0,0-1.7,7.5,13,13,0,0,0,1.8,2.5h-9.9c-.4,0-1,.3-1,.6C513.13,374.3,512.63,377,511.93,379.8Zm-318.2-12.3c-2.9,13.6-5.7,27.1-8.6,40.7h9.6c3.5-16.5,7-32.9,10.5-49.3h-18.7c-.6,2.9-1.3,5.7-1.9,8.6Zm28.7,40.7c3.5-16.5,7-32.9,10.5-49.3h-18.7c-.6,2.9-1.3,5.7-1.9,8.7h9.1c-2.9,13.6-5.7,27.1-8.6,40.6Zm428.7-15c0,1.2-.1,2.2,0,3.2q.3,3.45,3.9,3.6a16,16,0,0,0,7.1-1.6c2-.9,3.8-1.9,5.8-2.9a1.42,1.42,0,0,1,.2.6c.8,2.8,1.5,5.6,2.3,8.5-4.2,1.8-8.4,3.5-13,4a17,17,0,0,1-7.1-.4c-5-1.5-7.7-5-8.3-10-1.1-9.4,1.7-17.7,8.9-24a16.43,16.43,0,0,1,12.6-3.8c5.5.5,9.4,4.6,9.9,10.6a31.08,31.08,0,0,1,0,6.1c-.2,2-.6,3.9-1,6C665.33,393.2,658.23,393.2,651.13,393.2Zm13.2-8.7a15,15,0,0,0-.4-2.4,3.43,3.43,0,0,0-3.5-2.9c-2.7,0-6,2.6-6.7,5.3Zm-321.6-1.8q-.15-4.5-.3-8.7a1.16,1.16,0,0,1,.5-.7c3.4-1.2,6.7-2.5,10.4-2.8,8.9-.7,13,6.3,11.4,13.6-1.2,5.5-2.4,10.9-3.3,16.4-.4,2.2,0,4.4.1,6.7,0,.3.1.5.1.9l-9.3,1.2a14.05,14.05,0,0,1-.2-1.8,42.09,42.09,0,0,1-4.8,1.2c-7,1-11.9-3.4-11.8-10.4a17.32,17.32,0,0,1,10.7-15.6c2.7-1,4.6-1.1,9.3-.3.8-2.3-.2-3.7-2.5-3.1-2.9.8-5.8,1.9-8.6,2.8C343.73,382.3,343.33,382.5,342.73,382.7Zm10.8,8.5c-2.3-.7-4.4-1-6.1.7a8.41,8.41,0,0,0-2.5,7.2c.1.9.7,1.2,1.6,1.1,2.8-.5,4.6-2.4,6-4.5C353.33,394.4,353.23,392.7,353.53,391.2Z" transform="translate(-110.12 -357.2)" style="fill:none;stroke:#000;stroke-miterlimit:10;stroke-width:3px"/></svg>